<?xml version="1.0" standalone="no"?>
<!DOCTYPE svg PUBLIC "-//W3C//DTD SVG 1.1//EN" "http://www.w3.org/Graphics/SVG/1.1/DTD/svg11.dtd" >
<svg xmlns="http://www.w3.org/2000/svg">
<metadata>Generated by IcoMoon</metadata>
<defs>
<font id="HC" horiz-adv-x="1024">
<font-face units-per-em="1024" ascent="960" descent="-64" />
<missing-glyph horiz-adv-x="1024" />
<glyph unicode="&#x20;" horiz-adv-x="512" d="" />
<glyph unicode="&#xe900;" glyph-name="account" d="M512 349.867c-119.467 0-213.333 93.867-213.333 204.8s98.133 204.8 213.333 204.8c119.467 0 213.333-93.867 213.333-204.8s-93.867-204.8-213.333-204.8zM512 691.2c-76.8 0-140.8-59.733-140.8-132.267s64-132.267 140.8-132.267c76.8 0 140.8 59.733 140.8 132.267s-64 132.267-140.8 132.267zM682.667 179.2c-42.667 38.4-102.4 64-170.667 64s-128-25.6-170.667-64h-98.133c59.733 81.067 157.867 136.533 268.8 136.533s209.067-55.467 268.8-136.533h-98.133zM512-64c-281.6 0-512 230.4-512 512s230.4 512 512 512c281.6 0 512-230.4 512-512s-230.4-512-512-512zM512 887.467c-243.2 0-439.467-196.267-439.467-439.467s196.267-439.467 439.467-439.467c243.2 0 439.467 196.267 439.467 439.467s-196.267 439.467-439.467 439.467z" />
<glyph unicode="&#xe901;" glyph-name="arr-right" d="M196.267 55.467l392.533 392.533-392.533 392.533 119.467 119.467 512-512-512-512-119.467 119.467z" />
<glyph unicode="&#xe902;" glyph-name="arrow-down" d="M0 704l512-512 512 512h-1024z" />
<glyph unicode="&#xe903;" glyph-name="calendar" d="M0 665.6h1024v-81.067h-1024v81.067zM268.8 742.4c-29.867 0-55.467 25.6-55.467 55.467v106.667c4.267 29.867 25.6 55.467 55.467 55.467s55.467-25.6 55.467-55.467v-106.667c0-29.867-25.6-55.467-55.467-55.467zM268.8 934.4v-25.6c0 0 0 0 0 0v25.6zM648.533 853.333h-273.067v-81.067h268.8v81.067zM861.867 772.267h55.467c12.8 0 25.6-12.8 25.6-25.6v-699.733c0-12.8-12.8-25.6-25.6-25.6h-810.667c-12.8 0-25.6 12.8-25.6 25.6v695.467c0 12.8 12.8 25.6 25.6 25.6h55.467v85.333h-55.467c-59.733 0-106.667-51.2-106.667-110.933v-699.733c0-59.733 46.933-106.667 106.667-106.667h806.4c59.733 0 106.667 46.933 106.667 106.667v699.733c0 59.733-46.933 106.667-106.667 106.667h-55.467v-76.8zM755.2 742.4c-29.867 0-55.467 25.6-55.467 55.467v106.667c0 29.867 25.6 55.467 55.467 55.467s55.467-25.6 55.467-55.467v-106.667c-4.267-29.867-25.6-55.467-55.467-55.467zM755.2 934.4v0zM268.8 290.133h29.867c29.867 0 55.467-25.6 55.467-55.467v-29.867c0-29.867-25.6-55.467-55.467-55.467h-29.867c-29.867 0-55.467 25.6-55.467 55.467v29.867c4.267 29.867 25.6 55.467 55.467 55.467zM499.2 290.133h29.867c29.867 0 55.467-25.6 55.467-55.467v-29.867c0-29.867-25.6-55.467-55.467-55.467h-29.867c-29.867 0-55.467 25.6-55.467 55.467v29.867c0 29.867 25.6 55.467 55.467 55.467zM725.333 290.133h29.867c29.867 0 55.467-25.6 55.467-55.467v-29.867c0-29.867-25.6-55.467-55.467-55.467h-29.867c-29.867 0-55.467 25.6-55.467 55.467v29.867c0 29.867 25.6 55.467 55.467 55.467zM268.8 473.6h29.867c29.867 0 55.467-25.6 55.467-55.467v-29.867c0-29.867-25.6-55.467-55.467-55.467h-29.867c-29.867 0-55.467 25.6-55.467 55.467v29.867c4.267 34.133 25.6 55.467 55.467 55.467zM499.2 473.6h29.867c29.867 0 55.467-25.6 55.467-55.467v-29.867c0-29.867-25.6-55.467-55.467-55.467h-29.867c-29.867 0-55.467 25.6-55.467 55.467v29.867c0 34.133 25.6 55.467 55.467 55.467zM725.333 473.6h29.867c29.867 0 55.467-25.6 55.467-55.467v-29.867c0-29.867-25.6-55.467-55.467-55.467h-29.867c-29.867 0-55.467 25.6-55.467 55.467v29.867c0 34.133 25.6 55.467 55.467 55.467z" />
<glyph unicode="&#xe904;" glyph-name="chat" d="M46.933 8.533l34.133 238.933c-55.467 68.267-81.067 145.067-81.067 221.867 0 230.4 230.4 418.133 512 418.133s512-187.733 512-418.133c0-230.4-230.4-418.133-512-418.133-81.067 0-157.867 12.8-226.133 42.667v0l-238.933-85.333zM512 814.933c-243.2 0-439.467-153.6-439.467-341.333 0-64 21.333-123.733 64-179.2l21.333-25.6-21.333-145.067 149.333 55.467 25.6-8.533c64-25.6 128-38.4 200.533-38.4 243.2 0 439.467 153.6 439.467 341.333s-196.267 341.333-439.467 341.333zM627.2 593.067h-230.4c-21.333 0-38.4 17.067-38.4 38.4s17.067 38.4 38.4 38.4h234.667c21.333 0 38.4-17.067 38.4-38.4-4.267-21.333-21.333-38.4-42.667-38.4zM627.2 302.933h-230.4c-21.333 0-38.4 17.067-38.4 38.4s17.067 38.4 38.4 38.4h234.667c21.333 0 38.4-17.067 38.4-38.4-4.267-21.333-21.333-38.4-42.667-38.4zM729.6 448h-435.2c-21.333 0-38.4 17.067-38.4 38.4s17.067 38.4 38.4 38.4h439.467c21.333 0 38.4-17.067 38.4-38.4-4.267-21.333-21.333-38.4-42.667-38.4z" />
<glyph unicode="&#xe905;" glyph-name="chat-edit" d="M46.933 170.667l17.067 119.467c-42.667 51.2-68.267 110.933-68.267 179.2 0 183.467 192 328.533 426.667 328.533 149.333 0 281.6-59.733 358.4-149.333l-42.667-42.667c-12.8 17.067-29.867 34.133-51.2 46.933-64 51.2-157.867 85.333-264.533 85.333s-200.533-34.133-264.533-85.333c-64-51.2-98.133-119.467-98.133-187.733 0-46.933 17.067-98.133 51.2-136.533l17.067-21.333v-25.6l-12.8-85.333 102.4 38.4h21.333l21.333-8.533c51.2-17.067 106.667-29.867 166.4-29.867 8.533 0 12.8 0 21.333 0v-59.733c-8.533 0-12.8 0-21.333 0-68.267 0-132.267 12.8-187.733 34.133l-136.533-46.933-64-21.333 8.533 68.267zM507.733 153.6l4.267 128 392.533 392.533 123.733-123.733-392.533-392.533-128-4.267zM576 256v-34.133h34.133l328.533 328.533-34.133 34.133-328.533-328.533zM580.267 507.733h-345.6c-17.067 0-34.133 12.8-34.133 34.133s12.8 34.133 34.133 34.133h345.6c17.067 0 34.133-12.8 34.133-34.133s-17.067-34.133-34.133-34.133zM499.2 384h-264.533c-17.067 0-34.133 12.8-34.133 29.867s12.8 34.133 34.133 34.133h264.533c17.067 0 34.133-12.8 34.133-34.133-4.267-12.8-17.067-29.867-34.133-29.867z" />
<glyph unicode="&#xe906;" glyph-name="computer" d="M1006.933 42.667c-12.8 25.6-38.4 38.4-64 38.4h-320v217.6h294.4c38.4 0 72.533 34.133 72.533 72.533v512c0 38.4-34.133 72.533-72.533 72.533h-806.4c-42.667 4.267-72.533-29.867-72.533-68.267v-512c0-38.4 34.133-72.533 72.533-72.533h294.4v-217.6h-324.267c-25.6 0-51.2-17.067-64-38.4-25.6-55.467 8.533-110.933 64-110.933h861.867c55.467 0 89.6 55.467 64 106.667zM110.933 379.733v512h806.4v-512h-806.4zM550.4 81.067h-72.533v217.6h72.533v-217.6z" />
<glyph unicode="&#xe907;" glyph-name="config" d="M503.467 277.333c-93.867 0-166.4 76.8-166.4 170.667s76.8 170.667 166.4 170.667 166.4-76.8 166.4-170.667c4.267-93.867-72.533-170.667-166.4-170.667zM503.467 546.133c-51.2 0-98.133-42.667-98.133-98.133s42.667-98.133 98.133-98.133c51.2 0 98.133 42.667 98.133 98.133s-42.667 98.133-98.133 98.133zM648.533-55.467h-277.333l-12.8 145.067c-34.133 12.8-64 34.133-89.6 55.467l-132.267-64-136.533 243.2 128 89.6c0 12.8 0 21.333 0 38.4 0 21.333 0 38.4 4.267 59.733l-132.267 85.333 136.533 243.2 149.333-72.533c25.6 17.067 51.2 29.867 76.8 42.667l12.8 145.067h268.8l12.8-145.067c29.867-12.8 59.733-29.867 89.6-51.2v0l128 64 136.533-238.933-119.467-81.067c4.267-21.333 4.267-38.4 4.267-55.467 0-12.8 0-25.6 0-38.4v0l128-89.6-136.533-243.2-132.267 64c-29.867-21.333-59.733-42.667-89.6-55.467v0l-17.067-140.8zM439.467 12.8h140.8l8.533 123.733 38.4 17.067c25.6 12.8 51.2 25.6 72.533 46.933l34.133 29.867 110.933-55.467 72.533 128-106.667 76.8 4.267 42.667c0 8.533 0 21.333 0 29.867 0 12.8 0 29.867-4.267 42.667l-4.267 42.667 98.133 68.267-68.267 123.733-106.667-51.2-34.133 29.867c-21.333 17.067-46.933 29.867-72.533 42.667l-42.667 17.067-8.533 123.733h-136.533l-8.533-123.733-42.667-17.067c-21.333-8.533-42.667-21.333-64-34.133l-25.6-34.133-128 64-72.533-128 110.933-76.8-8.533-42.667c-4.267-17.067-4.267-29.867-4.267-46.933 0-12.8 0-17.067 0-25.6l8.533-42.667-110.933-76.8 72.533-128 110.933 55.467 34.133-29.867c21.333-17.067 46.933-34.133 72.533-46.933l38.4-17.067 21.333-128z" />
<glyph unicode="&#xe908;" glyph-name="crossed-out-heart" d="M29.867 477.867c-17.067 0-29.867-12.8-29.867-29.867s12.8-29.867 29.867-29.867v59.733zM994.133 418.133c17.067 0 29.867 12.8 29.867 29.867s-12.8 29.867-29.867 29.867v-59.733zM29.867 418.133h964.267v59.733h-964.267v-59.733zM465.067 132.267l25.6-12.8 25.6 12.8c145.067 76.8 234.667 162.133 290.133 243.2h-68.267c-46.933-64-128-128-243.2-192-119.467 64-196.267 128-243.2 192h-72.533c51.2-85.333 140.8-170.667 285.867-243.2zM128 529.067c-4.267 46.933 4.267 89.6 25.6 128 34.133 68.267 102.4 115.2 179.2 123.733 55.467 4.267 115.2-12.8 162.133-55.467 46.933 42.667 102.4 59.733 162.133 55.467 76.8-8.533 145.067-55.467 179.2-123.733 21.333-38.4 29.867-81.067 25.6-128h-59.733c8.533 157.867-157.867 251.733-268.8 149.333-12.8-12.8-25.6-29.867-38.4-46.933-12.8 17.067-25.6 34.133-38.4 46.933-115.2 102.4-281.6 8.533-273.067-149.333h-55.467z" />
<glyph unicode="&#xe909;" glyph-name="dimond" d="M1015.467 661.333l-174.933 183.467c-8.533 4.267-17.067 8.533-21.333 8.533-221.867 0-392.533 0-614.4 0-8.533 0-21.333-4.267-21.333-8.533l-174.933-183.467c-8.533-8.533-8.533-25.6 0-38.4l482.133-567.467c12.8-17.067 38.4-12.8 51.2 0l482.133 567.467c0 8.533 0 25.6-8.533 38.4zM507.733 174.933l-145.067 435.2h290.133l-145.067-435.2zM507.733 780.8l110.933-110.933h-226.133l115.2 110.933zM324.267 691.2l-68.267 102.4h174.933l-106.667-102.4zM580.267 793.6h174.933l-68.267-102.4-106.667 102.4zM819.2 772.267l98.133-102.4h-166.4l68.267 102.4zM196.267 772.267l68.267-102.4h-166.4l98.133 102.4zM294.4 610.133l132.267-392.533-332.8 392.533h200.533zM588.8 217.6l132.267 392.533h204.8l-337.067-392.533z" />
<glyph unicode="&#xe90a;" glyph-name="divan" d="M213.333 221.867h597.333v-64h-597.333v64zM170.667 115.2h-85.333c-46.933 0-85.333 38.4-85.333 85.333v213.333c0 46.933 38.4 85.333 85.333 85.333h85.333c46.933 0 85.333-38.4 85.333-85.333v-213.333c0-46.933-38.4-85.333-85.333-85.333zM85.333 435.2c-12.8 0-21.333-8.533-21.333-21.333v-213.333c0-12.8 8.533-21.333 21.333-21.333h85.333c12.8 0 21.333 8.533 21.333 21.333v213.333c0 12.8-8.533 21.333-21.333 21.333h-85.333zM832 307.2h-640v320c0 81.067 68.267 149.333 149.333 149.333h341.333c81.067 0 149.333-68.267 149.333-149.333v-320zM256 371.2h512v256c0 46.933-38.4 85.333-85.333 85.333h-341.333c-46.933 0-85.333-38.4-85.333-85.333v-256zM938.667 115.2h-85.333c-46.933 0-85.333 38.4-85.333 85.333v213.333c0 46.933 38.4 85.333 85.333 85.333h85.333c46.933 0 85.333-38.4 85.333-85.333v-213.333c0-46.933-38.4-85.333-85.333-85.333zM853.333 435.2c-12.8 0-21.333-8.533-21.333-21.333v-213.333c0-12.8 8.533-21.333 21.333-21.333h85.333c12.8 0 21.333 8.533 21.333 21.333v213.333c0 12.8-8.533 21.333-21.333 21.333h-85.333z" />
<glyph unicode="&#xe90b;" glyph-name="doc-edit" d="M355.105 8.497l494.781 494.781 60.339-60.339-494.781-494.781-60.339 60.339zM884.351 540.49l69.39 69.39 60.339-60.339-69.39-69.39-60.339 60.339zM98.133 814.933h550.4v-375.467l98.133 98.133v277.333c0 55.467-42.667 98.133-98.133 98.133h-550.4c-55.467 4.267-98.133-42.667-98.133-98.133v-699.733c0-55.467 42.667-98.133 98.133-98.133h123.733l98.133 98.133h-221.867v699.733zM200.533 708.267h349.867v-85.333h-349.867v85.333zM200.533 507.733h349.867v-85.333h-349.867v85.333z" />
<glyph unicode="&#xe90c;" glyph-name="dots-table" d="M908.8 674.133c64 0 115.2 51.2 115.2 115.2s-51.2 115.2-115.2 115.2-110.933-51.2-110.933-115.2 51.2-115.2 110.933-115.2zM908.8 563.2c-64 0-115.2-51.2-115.2-115.2s51.2-115.2 115.2-115.2 115.2 51.2 115.2 115.2-51.2 115.2-115.2 115.2zM908.8 221.867c-64 0-115.2-51.2-115.2-115.2s51.2-115.2 115.2-115.2 115.2 51.2 115.2 115.2-51.2 115.2-115.2 115.2zM115.2 674.133c64 0 115.2 51.2 115.2 115.2s-55.467 115.2-115.2 115.2-115.2-51.2-115.2-115.2 51.2-115.2 115.2-115.2zM115.2 563.2c-64 0-115.2-51.2-115.2-115.2s51.2-115.2 115.2-115.2 115.2 51.2 115.2 115.2-55.467 115.2-115.2 115.2zM115.2 221.867c-64 0-115.2-51.2-115.2-115.2s51.2-115.2 115.2-115.2 115.2 51.2 115.2 115.2-55.467 115.2-115.2 115.2zM512 674.133c64 0 115.2 51.2 115.2 115.2s-51.2 115.2-115.2 115.2-115.2-51.2-115.2-115.2 51.2-115.2 115.2-115.2zM512 563.2c-64 0-115.2-51.2-115.2-115.2s51.2-115.2 115.2-115.2 115.2 51.2 115.2 115.2-51.2 115.2-115.2 115.2zM512 221.867c-64 0-115.2-51.2-115.2-115.2s51.2-115.2 115.2-115.2 115.2 51.2 115.2 115.2-51.2 115.2-115.2 115.2z" />
<glyph unicode="&#xe90d;" glyph-name="filter-fill" d="M128-34.133c-34.133 0-64 29.867-64 64v832c0 34.133 29.867 64 64 64s64-29.867 64-64v-832c0-34.133-29.867-64-64-64zM896-34.133c-34.133 0-64 29.867-64 64v832c0 34.133 29.867 64 64 64s64-29.867 64-64v-832c0-34.133-29.867-64-64-64zM512-34.133c-34.133 0-64 29.867-64 64v832c0 34.133 29.867 64 64 64s64-29.867 64-64v-832c0-34.133-29.867-64-64-64zM256 448c0-70.692-57.308-128-128-128s-128 57.308-128 128c0 70.692 57.308 128 128 128s128-57.308 128-128zM1024 448c0-70.692-57.308-128-128-128s-128 57.308-128 128c0 70.692 57.308 128 128 128s128-57.308 128-128zM640 448c0-70.692-57.308-128-128-128s-128 57.308-128 128c0 70.692 57.308 128 128 128s128-57.308 128-128z" />
<glyph unicode="&#xe90e;" glyph-name="filters" d="M917.333-4.267h-89.6v524.8h89.6v-524.8zM571.733-4.267h-89.6v213.333h89.6v-213.333zM196.267-4.267h-89.6v524.8h89.6v-524.8zM571.733 418.133h-89.6v482.133h89.6v-482.133zM917.333 716.8h-89.6v183.467h89.6v-183.467zM196.267 716.8h-89.6v183.467h89.6v-183.467zM153.6 477.867c-81.067 0-149.333 68.267-149.333 149.333s68.267 149.333 149.333 149.333 149.333-68.267 149.333-149.333-68.267-149.333-149.333-149.333zM153.6 686.933c-34.133 0-59.733-25.6-59.733-59.733s25.6-59.733 59.733-59.733 59.733 25.6 59.733 59.733-25.6 59.733-59.733 59.733zM874.667 477.867c-81.067 0-149.333 68.267-149.333 149.333s68.267 149.333 149.333 149.333 149.333-64 149.333-149.333-68.267-149.333-149.333-149.333zM874.667 686.933c-34.133 0-59.733-25.6-59.733-59.733s25.6-59.733 59.733-59.733 59.733 25.6 59.733 59.733-25.6 59.733-59.733 59.733zM529.067 174.933c-81.067 0-149.333 68.267-149.333 149.333s68.267 149.333 149.333 149.333c81.067 0 149.333-68.267 149.333-149.333s-68.267-149.333-149.333-149.333zM529.067 388.267c-34.133 0-59.733-25.6-59.733-59.733s25.6-59.733 59.733-59.733c34.133 0 59.733 25.6 59.733 59.733 0 29.867-25.6 59.733-59.733 59.733z" />
<glyph unicode="&#xe90f;" glyph-name="hearts" d="M657.067 85.333c-8.533 0-17.067 0-21.333 4.267l-8.533 4.267-4.267 4.267c-8.533 12.8-21.333 25.6-29.867 34.133-46.933 51.2-81.067 93.867-46.933 157.867l166.4 166.4c55.467 59.733 59.733 106.667 12.8 157.867l-115.2 123.733c-12.8 12.8-17.067 29.867-12.8 42.667 4.267 17.067 17.067 25.6 38.4 34.133 149.333 51.2 290.133-12.8 366.933-170.667 68.267-140.8-38.4-320-162.133-439.467-38.4-38.4-123.733-119.467-183.467-119.467zM605.867 251.733c-8.533-17.067 0-25.6 42.667-72.533 4.267-8.533 12.8-12.8 17.067-21.333 42.667 12.8 166.4 115.2 238.933 238.933 34.133 59.733 68.267 145.067 34.133 217.6-55.467 110.933-145.067 162.133-247.467 140.8l85.333-89.6c42.667-42.667 93.867-136.533-12.8-256l-157.867-157.867zM490.667 55.467c-4.267 0-12.8 0-21.333 0l-8.533 4.267c-200.533 93.867-332.8 196.267-409.6 324.267-64 106.667-68.267 221.867-12.8 311.467v0c46.933 76.8 128 128 217.6 140.8 93.867 12.8 183.467-17.067 251.733-81.067l115.2-128c34.133-34.133 34.133-89.6 0-123.733l-153.6-183.467c-34.133-34.133-29.867-81.067 0-115.2l64-76.8c17.067-21.333 8.533-42.667 4.267-46.933-8.533-17.067-21.333-25.6-46.933-25.6zM477.867 81.067c0 0 0 0 0 0v0zM298.667 772.267c-12.8 0-21.333 0-34.133-4.267-68.267-8.533-132.267-51.2-166.4-106.667v0c-42.667-68.267-34.133-153.6 17.067-238.933 59.733-98.133 157.867-183.467 302.933-260.267-51.2 59.733-51.2 145.067 0 204.8l149.333 183.467c8.533 8.533 8.533 25.6 0 34.133l-110.933 123.733c-42.667 38.4-98.133 64-157.867 64z" />
<glyph unicode="&#xe910;" glyph-name="info-circle" d="M563.2 192h-102.4v307.2h102.4v-307.2zM563.2 601.6h-102.4v102.4h102.4v-102.4zM512-64c-281.6 0-512 230.4-512 512s230.4 512 512 512c281.6 0 512-230.4 512-512s-230.4-512-512-512zM512 908.8c-256 0-460.8-204.8-460.8-460.8s204.8-460.8 460.8-460.8c256 0 460.8 204.8 460.8 460.8s-204.8 460.8-460.8 460.8z" />
<glyph unicode="&#xe911;" glyph-name="logout" d="M482.133 836.267h448c12.8 0 21.333-8.533 21.333-21.333v-729.6c0-12.8-8.533-21.333-21.333-21.333h-448c-12.8 0-21.333 8.533-21.333 21.333v226.133h-68.267v-226.133c0-51.2 38.4-89.6 89.6-89.6h448c51.2 0 89.6 42.667 89.6 89.6v725.333c0 51.2-38.4 89.6-89.6 89.6h-448c-51.2 0-89.6-42.667-89.6-89.6v-226.133h68.267v226.133c0 12.8 8.533 25.6 21.333 25.6zM8.533 473.6c-12.8-12.8-12.8-34.133 0-46.933l213.333-217.6c12.8-12.8 34.133-12.8 46.933 0s12.8 34.133 0 46.933l-187.733 192 192 192c12.8 12.8 12.8 34.133 0 46.933-12.8 17.067-34.133 17.067-46.933 4.267l-217.6-217.6zM661.333 482.133h-627.2v-68.267h631.467v68.267zM797.867 768h89.6v-640h-89.6v640z" />
<glyph unicode="&#xe912;" glyph-name="mobile" d="M273.067 960c-38.4 0-68.267-29.867-68.267-68.267v-887.467c0-38.4 29.867-68.267 68.267-68.267h477.867c38.4 0 68.267 29.867 68.267 68.267v887.467c0 38.4-29.867 68.267-68.267 68.267h-477.867zM273.067 755.2c0 38.4 29.867 68.267 68.267 68.267h341.333c38.4 0 68.267-29.867 68.267-68.267v-546.133c0-38.4-29.867-68.267-68.267-68.267h-341.333c-38.4 0-68.267 29.867-68.267 68.267v546.133zM409.6 38.4c0 17.067 17.067 34.133 34.133 34.133h136.533c17.067 0 34.133-17.067 34.133-34.133s-17.067-34.133-34.133-34.133h-136.533c-17.067 0-34.133 17.067-34.133 34.133z" />
<glyph unicode="&#xe913;" glyph-name="option-dots" d="M512 704c68.267 0 128 59.733 128 128s-59.733 128-128 128-128-55.467-128-128 59.733-128 128-128zM512 576c-68.267 0-128-59.733-128-128s59.733-128 128-128 128 55.467 128 128-59.733 128-128 128zM512 192c-68.267 0-128-55.467-128-128s59.733-128 128-128 128 55.467 128 128-59.733 128-128 128z" />
<glyph unicode="&#xe914;" glyph-name="pictures" d="M230.4 72.533c-17.067 0-29.867 4.267-42.667 12.8-21.333 12.8-34.133 29.867-42.667 51.2l-128 473.6c-8.533 25.6-4.267 46.933 8.533 68.267s29.867 34.133 51.2 42.667l503.467 136.533c46.933 12.8 93.867-12.8 106.667-59.733l132.267-477.867c4.267-21.333 4.267-46.933-8.533-68.267s-29.867-34.133-51.2-42.667l-503.467-136.533c-8.533 0-17.067 0-25.6 0zM601.6 797.867c0 0-4.267 0-4.267 0l-503.467-140.8c-4.267 0-12.8-4.267-12.8-12.8-4.267-4.267-4.267-8.533-4.267-17.067l132.267-473.6c0-4.267 4.267-12.8 12.8-12.8 4.267-4.267 12.8-4.267 17.067-4.267l503.467 136.533c4.267 0 12.8 4.267 12.8 12.8 4.267 4.267 4.267 12.8 4.267 17.067l-132.267 477.867c-4.267 8.533-12.8 17.067-25.6 17.067zM537.6 149.333l285.867-81.067c46.933-12.8 98.133 12.8 110.933 64l85.333 315.733c12.8 46.933-12.8 98.133-64 110.933l-217.6 59.733 21.333-76.8 179.2-51.2c12.8-4.267 17.067-17.067 17.067-25.6l-85.333-315.733c-4.267-12.8-17.067-17.067-25.6-17.067l-179.2 51.2-128-34.133zM302.933 209.067l-59.733 25.6 64 153.6c8.533 21.333 25.6 38.4 51.2 42.667 21.333 4.267 46.933 0 64-12.8 4.267-4.267 8.533-4.267 8.533 0 0 0 4.267 0 8.533 4.267l42.667 98.133c8.533 21.333 29.867 38.4 51.2 46.933 21.333 4.267 46.933 0 68.267-12.8l72.533-55.467-38.4-51.2-72.533 55.467c-4.267 4.267-8.533 4.267-12.8 4.267s-8.533-4.267-8.533-8.533l-42.667-98.133c-8.533-21.333-25.6-38.4-51.2-42.667-21.333-4.267-46.933 0-64 12.8-4.267 4.267-8.533 4.267-8.533 0 0 0-4.267 0-8.533-4.267l-64-157.867zM307.2 524.8c0-25.921-21.013-46.933-46.933-46.933s-46.933 21.013-46.933 46.933c0 25.921 21.013 46.933 46.933 46.933s46.933-21.013 46.933-46.933z" />
<glyph unicode="&#xe915;" glyph-name="pluse" d="M567.467 960h-115.2v-456.533h-452.267v-115.2h456.533v-452.267h115.2v456.533h452.267v115.2h-456.533v452.267z" />
<glyph unicode="&#xe916;" glyph-name="point" d="M512-64c-281.6 0-512 230.4-512 512s230.4 512 512 512 512-230.4 512-512-230.4-512-512-512zM512 857.6c-226.133 0-409.6-183.467-409.6-409.6s183.467-409.6 409.6-409.6c226.133 0 409.6 183.467 409.6 409.6s-183.467 409.6-409.6 409.6zM614.4 448c0-56.554-45.846-102.4-102.4-102.4s-102.4 45.846-102.4 102.4c0 56.554 45.846 102.4 102.4 102.4s102.4-45.846 102.4-102.4z" />
<glyph unicode="&#xe917;" glyph-name="search" d="M439.467 68.267c-243.2 0-439.467 196.267-439.467 439.467s196.267 439.467 439.467 439.467c243.2 0 439.467-196.267 439.467-439.467s-196.267-439.467-439.467-439.467zM439.467 823.467c-174.933 0-315.733-140.8-315.733-315.733s140.8-315.733 315.733-315.733 315.733 140.8 315.733 315.733-140.8 315.733-315.733 315.733zM960-51.2c-17.067 0-34.133 4.267-42.667 17.067l-209.067 209.067c-25.6 25.6-25.6 64 0 89.6s64 25.6 89.6 0l209.067-209.067c25.6-25.6 25.6-64 0-89.6-12.8-12.8-29.867-17.067-46.933-17.067z" />
<glyph unicode="&#xe918;" glyph-name="star" d="M247.467-42.667c-17.067 0-34.133 4.267-51.2 17.067-29.867 21.333-42.667 59.733-29.867 93.867l64 192c12.8 34.133 0 72.533-29.867 93.867l-162.133 119.467c-29.867 21.333-42.667 59.733-29.867 93.867s42.667 59.733 81.067 59.733h200.533c38.4 0 68.267 25.6 81.067 59.733l64 192c12.8 34.133 42.667 59.733 81.067 59.733s68.267-25.6 81.067-59.733l64-192c12.8-34.133 42.667-59.733 81.067-59.733h196.267c38.4 0 68.267-25.6 81.067-59.733s0-72.533-29.867-93.867l-162.133-119.467c-29.867-21.333-42.667-59.733-29.867-93.867l64-192c12.8-34.133 0-72.533-29.867-93.867s-68.267-21.333-98.133 0l-162.133 119.467c-29.867 21.333-68.267 21.333-98.133 0l-174.933-119.467c-17.067-12.8-34.133-17.067-51.2-17.067zM802.133 76.8v0c0 0 0 0 0 0zM512 234.667c42.667 0 89.6-12.8 123.733-42.667l55.467-42.667-21.333 68.267c-29.867 89.6 4.267 183.467 76.8 238.933l55.467 42.667h-72.533c-93.867 0-174.933 59.733-200.533 149.333l-17.067 68.267-21.333-68.267c-29.867-89.6-110.933-149.333-200.533-149.333h-72.533l55.467-42.667c76.8-55.467 106.667-149.333 76.8-238.933l-21.333-68.267 55.467 42.667c38.4 29.867 85.333 42.667 128 42.667zM554.667 840.533v0c-4.267 0-4.267 0 0 0z" />
<glyph unicode="&#xe919;" glyph-name="stars" d="M183.467 115.2c-12.8 0-25.6 4.267-38.4 12.8-17.067 12.8-29.867 38.4-25.6 59.733l34.133 192-136.533 136.533c-17.067 21.333-21.333 42.667-12.8 64s25.6 38.4 51.2 42.667l192 29.867 85.333 174.933c8.533 21.333 29.867 34.133 51.2 34.133 25.6 0 42.667-12.8 55.467-34.133l85.333-174.933 192-29.867c12.8 0 29.867-8.533 38.4-17.067 21.333-21.333 21.333-46.933 12.8-59.733-8.533-17.067-153.6-166.4-153.6-166.4l34.133-192c4.267-21.333-4.267-42.667-21.333-59.733-21.333-12.8-46.933-17.067-68.267-4.267l-170.667 89.6-170.667-93.867c-12.8 0-21.333-4.267-34.133-4.267zM384 793.6l-98.133-200.533-221.867-34.133 162.133-153.6-38.4-226.133 196.267 110.933 196.267-102.4-38.4 217.6 157.867 157.867-217.6 34.133-98.133 196.267zM584.533 183.467v0 0 0zM716.8 123.733l17.067 4.267 89.6-81.067c12.8-8.533 25.6-12.8 38.4-8.533s21.333 17.067 25.6 29.867l8.533 119.467 106.667 55.467c12.8 4.267 21.333 21.333 17.067 34.133 0 12.8-8.533 25.6-25.6 34.133l-106.667 51.2-25.6 119.467c-4.267 17.067-12.8 25.6-29.867 29.867-12.8 4.267-29.867 0-38.4-12.8l-81.067-89.6-46.933 4.267 12.8-64 29.867-4.267 34.133-4.267 21.333 25.6 46.933 51.2 12.8-68.267 8.533-34.133 29.867-12.8 64-25.6-55.467-29.867-29.867-17.067-4.267-38.4-4.267-68.267-51.2 46.933-25.6 21.333-34.133-8.533-12.8-4.267 8.533-55.467zM695.467 264.533v0 0 0z" />
<glyph unicode="&#xe91a;" glyph-name="update" d="M554.667 132.267c-17.067 0-38.4 4.267-46.933 25.6-12.8 29.867 12.8 51.2 21.333 59.733 21.333 21.333 46.933 59.733 64 81.067l4.267 8.533c17.067 25.6 29.867 55.467 38.4 93.867h-21.333c-8.533 0-21.333 4.267-29.867 8.533-4.267 4.267-8.533 4.267-17.067 8.533-8.533 8.533-17.067 17.067-25.6 25.6-17.067 25.6-17.067 64 8.533 93.867l157.867 204.8c4.267 8.533 17.067 17.067 25.6 21.333 25.6 12.8 55.467 12.8 81.067 0 8.533-4.267 12.8-8.533 17.067-12.8l8.533-8.533 162.133-209.067c17.067-21.333 21.333-51.2 12.8-81.067-4.267-12.8-12.8-29.867-29.867-38.4-12.8-8.533-29.867-17.067-46.933-17.067h-29.867c-12.8-68.267-42.667-128-85.333-170.667-42.667-46.933-123.733-76.8-243.2-89.6-8.533-4.267-17.067-4.267-25.6-4.267zM780.8 704c-4.267 0-4.267 0-4.267 0s-4.267 0-4.267-4.267l-162.133-209.067c-4.267-8.533 0-12.8 0-17.067s4.267-4.267 4.267-4.267l4.267-4.267h98.133l-4.267-38.4c-4.267-68.267-25.6-123.733-55.467-166.4l-4.267-8.533c-8.533-12.8-21.333-29.867-34.133-46.933 93.867 17.067 136.533 42.667 157.867 64 38.4 42.667 64 98.133 72.533 162.133l4.267 29.867h93.867c0 0 4.267 0 8.533 4.267 0 0 4.267 0 4.267 4.267 4.267 12.8 0 12.8 0 17.067v0l-157.867 209.067c0 0 0 0 0 0s-4.267 4.267-4.267 4.267c-12.8 4.267-12.8 4.267-17.067 4.267zM243.2 123.733c-17.067 0-29.867 4.267-42.667 12.8-8.533 4.267-17.067 12.8-17.067 12.8l-4.267 4.267-162.133 209.067c-17.067 21.333-21.333 51.2-12.8 81.067 4.267 12.8 12.8 29.867 29.867 38.4 12.8 8.533 29.867 17.067 46.933 17.067h29.867c17.067 68.267 46.933 123.733 98.133 166.4 106.667 89.6 221.867 102.4 226.133 106.667 8.533 0 42.667 8.533 64-17.067 8.533-8.533 17.067-29.867 4.267-59.733-4.267-8.533-12.8-17.067-21.333-29.867-25.6-34.133-76.8-110.933-102.4-166.4 25.6 0 46.933 0 55.467-4.267 25.6-8.533 46.933-25.6 55.467-51.2s0-55.467-17.067-81.067l-162.133-209.067c-8.533-8.533-17.067-17.067-25.6-21.333-17.067-4.267-29.867-8.533-42.667-8.533zM234.667 196.267c0 0 0 0 0 0 4.267-4.267 12.8-4.267 17.067 0 0 0 4.267 0 4.267 4.267l162.133 209.067c4.267 8.533 4.267 12.8 4.267 17.067s-4.267 4.267-8.533 4.267-46.933 0-81.067 0l-38.4-4.267 4.267 38.4c4.267 59.733 59.733 145.067 119.467 234.667-38.4-12.8-102.4-38.4-162.133-85.333-42.667-38.4-68.267-89.6-76.8-149.333l-4.267-29.867h-93.867c0 0-4.267 0-8.533-4.267 0 0-4.267 0-4.267-4.267-4.267-12.8 0-12.8 0-17.067l166.4-213.333z" />
<glyph unicode="&#xe91b;" glyph-name="users" d="M268.8 392.533c-119.467 0-217.6 98.133-217.6 217.6s98.133 217.6 217.6 217.6 217.6-98.133 217.6-217.6-98.133-217.6-217.6-217.6zM268.8 755.2c-81.067 0-145.067-64-145.067-145.067s64-145.067 145.067-145.067 145.067 64 145.067 145.067-64 145.067-145.067 145.067zM448 213.333c-46.933 46.933-110.933 72.533-179.2 72.533s-132.267-29.867-179.2-72.533h-89.6c59.733 85.333 157.867 145.067 268.8 145.067s213.333-55.467 268.8-145.067h-89.6zM755.2 251.733c-119.467 0-217.6 98.133-217.6 217.6s98.133 217.6 217.6 217.6c119.467 0 217.6-98.133 217.6-217.6s-98.133-217.6-217.6-217.6zM755.2 610.133c-81.067 0-145.067-64-145.067-145.067s64-145.067 145.067-145.067c81.067 0 145.067 64 145.067 145.067s-64 145.067-145.067 145.067zM934.4 68.267c-46.933 46.933-110.933 72.533-179.2 72.533s-132.267-29.867-179.2-72.533h-89.6c59.733 85.333 157.867 145.067 268.8 145.067s213.333-55.467 268.8-145.067h-89.6z" />
</font>
</defs>
</svg>
